<svg xmlns="http://www.w3.org/2000/svg" width="154" height="204" viewBox="0 0 154 204">
  <g id="그룹_96" data-name="그룹 96" transform="translate(-125 599)">
    <rect id="사각형_159" data-name="사각형 159" width="154" height="204" transform="translate(125 -599)" fill="none"/>
    <path id="icon_cotton목화" d="M46.8,53.536a20.314,20.314,0,0,1-1.438-2.928l-.043-.1.05-.1a4.941,4.941,0,0,0-.186-4.7c-.093-.153-.191-.3-.3-.442l-.141-.178.166-.158a20.837,20.837,0,0,0,2.247-2.461l.05-.065.08-.025a17.145,17.145,0,0,0,4.052-1.734A16.876,16.876,0,0,0,42.722,9.25l-.452.005-.148-.269A12.851,12.851,0,0,0,19.045,11l-.068.186-.2-.025a12.923,12.923,0,0,0-8.34,1.666A12.865,12.865,0,0,0,5.93,30.439l.158.256-.073.128a16.88,16.88,0,0,0,23.255,22.9A17.191,17.191,0,0,0,32.741,51l.058-.058.08-.013a20.325,20.325,0,0,0,3.237-.787l.219-.073.09.214a3.984,3.984,0,0,0,.241.473,4.9,4.9,0,0,0,3.765,2.4l.156.015.053.146a20.574,20.574,0,0,0,1.46,3.011A18.134,18.134,0,0,0,54.307,64.57c3.18.679,3.695-1.048,3.695-1.048s.86-2.043-.819-2.664C53.241,59.407,50,58.947,46.8,53.536ZM31.7,45.53c-2.066.676-3.192.256-5.077.025s-3.9-3.237-5.349-1.563c-1.058,1.224-.093,2.257.427,3.134a8,8,0,0,0,4.713,3.486l.613.186-.576.279a13.018,13.018,0,0,1-5.773,1.332A13.211,13.211,0,0,1,9.785,31.683l.759-1.1-.817-1.058a9.417,9.417,0,0,1-.654-.953,9.2,9.2,0,0,1,3.227-12.6,9.315,9.315,0,0,1,7.417-.87l1.935.6.4-1.986A9.2,9.2,0,0,1,38.98,10.854a8.834,8.834,0,0,1,.523,1.033l.533,1.222,1.332-.138a13.506,13.506,0,0,1,1.355-.068,13.216,13.216,0,0,1,7.646,24l-1.086.933.307-1.3a19.908,19.908,0,0,0,.382-2.9,7.438,7.438,0,0,0-.38-3.142s-.787-2.159-2.5-1.885c-3.428.55-.993,6.646-4.411,9.858a8.909,8.909,0,0,1-1.227.824c-1.616.566-2.858-.274-4.429-1.767,0,0-1.629-2.189-3.094-1.1-1.42,1.058-.636,3.3-.636,3.3,1.1,2.473,1.186,3.582,0,4.831A3.778,3.778,0,0,1,31.7,45.53Z" transform="translate(170.204 -529.69)" fill="#1d1d1b"/>
  </g>
</svg>
