<svg xmlns="http://www.w3.org/2000/svg" width="154" height="204" viewBox="0 0 154 204">
  <g id="그룹_94" data-name="그룹 94" transform="translate(-875 803)">
    <rect id="사각형_155" data-name="사각형 155" width="154" height="204" transform="translate(875 -803)" fill="none"/>
    <path id="패스_1629" data-name="패스 1629" d="M77.281,19.234,43.587.165a1.3,1.3,0,0,0-1.434,0L.717,24.109A1.505,1.505,0,0,0,0,25.4v5.3a1.505,1.505,0,0,0,.717,1.29L34.411,50.921a1.864,1.864,0,0,0,1.434,0L77.281,26.977A1.505,1.505,0,0,0,78,25.686v-5.3A1.462,1.462,0,0,0,77.281,19.234ZM42.87,3.033,73.7,20.525,35.128,42.748,4.3,25.4ZM35.128,48.053,2.868,29.844V27.837L34.411,45.616a1.864,1.864,0,0,0,1.434,0L75.13,22.962v2.007Z" transform="translate(913 -726.95)" fill="#3c3c3b"/>
  </g>
</svg>
