<svg xmlns="http://www.w3.org/2000/svg" width="154" height="204" viewBox="0 0 154 204">
  <g id="그룹_95" data-name="그룹 95" transform="translate(-125 803)">
    <path id="패스_2" data-name="패스 2" d="M51.567,14.023c-3.579.964-4.031,3.5-4.05,3.613-.036.251-3.116,21.548-3.72,25.7-.009.062-.018.121-.026.176a12.323,12.323,0,0,0,.17,3.452,3.176,3.176,0,0,0,1.812,2.242,4.546,4.546,0,0,0,1.156.227,5.837,5.837,0,0,0,1.381-.032,9.261,9.261,0,0,0,2.441-.78,6.127,6.127,0,0,0,.752-.416,1.831,1.831,0,0,0,.59-.525.519.519,0,0,0-.025-.658.642.642,0,0,0-.62-.074,7.043,7.043,0,0,1-.953.209,2.654,2.654,0,0,1-1.178-.075c-1.419-.486-1.285-2.583-1.117-3.742.161-1.108.54-3.713.6-4.109L52.329,14.7A.611.611,0,0,0,51.567,14.023Z" transform="translate(140.421 -732.002)"/>
    <path id="패스_3" data-name="패스 3" d="M73.57,37.79c-5.913,2.793-9.314,9.889-7.613,15.791,1.683,5.84,7.739,8.307,13.541,5.566s9.243-9.7,7.67-15.59C85.577,37.6,79.483,35,73.57,37.79Zm8.758,11.394c-.919,5.129-3.95,9.131-6.911,9.537a3.5,3.5,0,0,1-.868.008c-3.16-.372-5.146-5.239-4.144-10.885.914-5.136,3.962-9.187,6.928-9.594a3.367,3.367,0,0,1,.87-.009c1.555.184,2.812,1.433,3.545,3.52A14.9,14.9,0,0,1,82.328,49.184Z" transform="translate(130.015 -742.823)"/>
    <path id="패스_4" data-name="패스 4" d="M136.239,58.06a.444.444,0,0,0-.238-.154.517.517,0,0,0-.384.072c-.147.077-.3.15-.448.213a3.37,3.37,0,0,1-.582.189l-.036.006c-1.222.2-1.781-.251-2.034-.8a3.059,3.059,0,0,1-.2-1.323c.019-.253.048-.5.083-.722L135.065,37.5a.347.347,0,0,0-.4-.4c-.017,0-.032.005-.049.008q-.27.043-.56.1a5.672,5.672,0,0,0-2.826,1.3c-1.106,1.064-1.448,2.764-1.683,4.273-.228,1.474-.816,5.648-1.28,8.877-.318,2.227-.8,5.018-2.922,6.262a6.428,6.428,0,0,1-4.514.489c-1.643-.635-1.954-2.526-1.911-4,0-.193.015-.389.03-.582.121-1.446.334-2.864.534-4.168l1.8-12.1a.344.344,0,0,0-.4-.392,6.148,6.148,0,0,0-3.3,1.356,5.024,5.024,0,0,0-1.295,2.415c-.384,2.633-1.365,9.608-1.392,9.853a21.778,21.778,0,0,0-.033,5.769,4.59,4.59,0,0,0,2.565,3.237c1.861.885,4.731.586,5.632.431a14.5,14.5,0,0,0,2.42-.62,9.475,9.475,0,0,0,1.169-.51c.309-.161.7-.53,1.054-.56a.8.8,0,0,1,.655.381,3.443,3.443,0,0,0,3.041,1.613,7.778,7.778,0,0,0,4.413-1.465c.231-.177.467-.337.507-.649A.465.465,0,0,0,136.239,58.06Z" transform="translate(106.538 -743.031)"/>
    <path id="패스_5" data-name="패스 5" d="M12.4,38.19a2.9,2.9,0,0,1,2.31.625c.635.523.822.784,1.43,1.339a1.7,1.7,0,0,0,2.221.261,1.3,1.3,0,0,0,.288-1.267,1.879,1.879,0,0,0-.35-.724,3.751,3.751,0,0,0-1.464-1.032,8.657,8.657,0,0,0-6.82-.052,7,7,0,0,0-2.792,1.991,4.54,4.54,0,0,0-.973,3.148A6.626,6.626,0,0,0,7.328,45.3,13.384,13.384,0,0,0,9.95,47.85c1.342.914,2.8,1.684,3.556,3.188,1.235,2.447.659,6.561-2.319,7.446-1.375.409-3.472.338-4.58-.676-.51-.467-.87-1.072-1.368-1.548A3.76,3.76,0,0,0,3.377,55.3a1.827,1.827,0,0,0-1.663.366,1.472,1.472,0,0,0-.334,1.32,2.63,2.63,0,0,0,.686,1.222A6.325,6.325,0,0,0,5.13,59.9a14.577,14.577,0,0,0,8.988-.776,7.09,7.09,0,0,0,4.075-7.874,8.037,8.037,0,0,0-3.051-4.421c-.021-.016-.043-.034-.068-.052a45.4,45.4,0,0,1-3.763-3.363,3.691,3.691,0,0,1-1.1-3.133A2.814,2.814,0,0,1,12.4,38.19Z" transform="translate(160.655 -742.823)"/>
    <rect id="사각형_158" data-name="사각형 158" width="154" height="204" transform="translate(125 -803)" fill="none"/>
  </g>
</svg>
