<svg xmlns="http://www.w3.org/2000/svg" width="154" height="204" viewBox="0 0 154 204">
  <g id="그룹_93" data-name="그룹 93" transform="translate(-875 599)">
    <path id="패스_1631" d="M-13737.82-3533.867l-2.459,1.445h0a7.486,7.486,0,0,0-3.316,6.5,5.707,5.707,0,0,0,1.443,4.048c.143.143.143.143.287.143l32.209,18.633.143.144a3.214,3.214,0,0,0,1.881.577,2.955,2.955,0,0,0,1.586-.436h.145l28.744-16.46a1.532,1.532,0,0,0,.488-2.111,1.435,1.435,0,0,0-.488-.489l-5.92-3.324,3.031-1.729a8.214,8.214,0,0,0,3.617-6.648,5.577,5.577,0,0,0-1.588-4.186,3.1,3.1,0,0,0-.873-.577l-31.771-18.2h0a3.67,3.67,0,0,0-2.459-.578,2.35,2.35,0,0,0-1.3.432h-.145l-28.309,16.465a1.482,1.482,0,0,0-.723,1.157,1.7,1.7,0,0,0,.723,1.3l5.924,3.466Zm25.416-20.22,28.6,16.465-17.475,10.11-10.836-6.209a1.315,1.315,0,0,0-1.445,0l-8.521,4.911-17.475-10.258,26.287-15.02a.451.451,0,0,1,.287-.147.529.529,0,0,1,.436.147h.143Zm-4.619,25.844,4.477-2.6,5.635,3.177Zm36.207,7.665-26.432,15.314a1.029,1.029,0,0,1-.729,0c-.43-.289-.727-.871-.727-2.168a5.147,5.147,0,0,1,1.881-4.048l20.8-11.986Zm-.773-8.82-26.721,15.456a7.5,7.5,0,0,0-3.322,6.5h0l-28.748-16.612a3.019,3.019,0,0,1-.432-1.879,5.144,5.144,0,0,1,1.879-4.045h0l2.455-1.444h0l2.309-1.3,11.705,6.787h.287c.145,0,.287.147.434.147l20.8,1.444h.867l19.209-11.123c.143,0,.291-.147.434-.147.287,0,.43,0,.578.147a2.979,2.979,0,0,1,.725,2.021A6.52,6.52,0,0,1-13681.59-3529.4Z" transform="translate(14661.602 3033.145)"/>
    <rect id="사각형_153" data-name="사각형 153" width="154" height="204" transform="translate(875 -599)" fill="none"/>
  </g>
</svg>
