<svg xmlns="http://www.w3.org/2000/svg" width="81.812" height="32.688" viewBox="0 0 81.812 32.688">
  <g id="그룹_11" data-name="그룹 11" transform="translate(-1.345 -14.002)">
    <path id="패스_1" data-name="패스 1" d="M162.511,74.862A2.14,2.14,0,1,1,164.65,77.1,2.149,2.149,0,0,1,162.511,74.862Zm3.842,0a1.716,1.716,0,1,0-1.7,1.859A1.746,1.746,0,0,0,166.353,74.862Zm-2.526-1.2h.852c.464,0,.885.2.885.75a.659.659,0,0,1-.432.627l.535.965h-.495l-.42-.822h-.484V76h-.442Zm.75,1.171c.318,0,.513-.124.513-.391,0-.234-.122-.4-.481-.4h-.34v.79Z" transform="translate(-83.629 -30.413)" fill="#fff"/>
    <g id="그룹_9" data-name="그룹 9" transform="translate(1.345 14.002)">
      <path id="패스_2" data-name="패스 2" d="M50.945,14.022c-3.3.887-3.712,3.225-3.729,3.327-.033.231-2.869,19.839-3.424,23.661-.009.057-.016.112-.024.162a11.346,11.346,0,0,0,.157,3.179,2.924,2.924,0,0,0,1.668,2.064,4.185,4.185,0,0,0,1.065.209,5.373,5.373,0,0,0,1.271-.029,8.527,8.527,0,0,0,2.247-.718,5.641,5.641,0,0,0,.693-.383,1.686,1.686,0,0,0,.544-.483.478.478,0,0,0-.023-.606.591.591,0,0,0-.571-.068,6.484,6.484,0,0,1-.878.192,2.444,2.444,0,0,1-1.084-.069c-1.307-.447-1.183-2.379-1.028-3.445.148-1.02.5-3.418.55-3.783l3.268-22.583A.562.562,0,0,0,50.945,14.022Z" transform="translate(-23.335 -14.002)" fill="#fff"/>
      <path id="패스_3" data-name="패스 3" d="M72.931,37.7c-5.444,2.571-8.575,9.1-7.009,14.539,1.55,5.377,7.126,7.648,12.467,5.124s8.51-8.927,7.062-14.353C83.986,37.528,78.375,35.128,72.931,37.7ZM81,48.191c-.846,4.722-3.637,8.406-6.363,8.78a3.222,3.222,0,0,1-.8.008c-2.909-.342-4.737-4.824-3.815-10.021.841-4.729,3.648-8.459,6.379-8.833a3.1,3.1,0,0,1,.8-.009c1.431.169,2.589,1.32,3.264,3.241A13.721,13.721,0,0,1,81,48.191Z" transform="translate(-34.645 -25.763)" fill="#fff"/>
      <path id="패스_4" data-name="패스 4" d="M134.53,56.4a.408.408,0,0,0-.219-.142.476.476,0,0,0-.354.066c-.135.071-.273.138-.413.2a3.1,3.1,0,0,1-.535.174l-.033.006c-1.125.186-1.64-.231-1.872-.739a2.816,2.816,0,0,1-.184-1.218c.018-.233.044-.457.076-.664l2.454-16.6a.319.319,0,0,0-.364-.364c-.016,0-.03,0-.045.007q-.248.04-.516.094a5.222,5.222,0,0,0-2.6,1.193,6.82,6.82,0,0,0-1.55,3.934c-.21,1.357-.751,5.2-1.179,8.173-.293,2.05-.737,4.62-2.69,5.766a5.919,5.919,0,0,1-4.156.45c-1.513-.585-1.8-2.326-1.759-3.687,0-.178.013-.358.028-.536.112-1.331.308-2.636.491-3.837l1.662-11.145a.317.317,0,0,0-.366-.361,5.66,5.66,0,0,0-3.036,1.248,4.625,4.625,0,0,0-1.192,2.223c-.353,2.424-1.257,8.846-1.281,9.071a20.051,20.051,0,0,0-.03,5.312,4.226,4.226,0,0,0,2.361,2.98,10.135,10.135,0,0,0,5.185.4,13.351,13.351,0,0,0,2.228-.571,8.723,8.723,0,0,0,1.076-.47c.285-.149.643-.488.97-.515a.738.738,0,0,1,.6.351,3.17,3.17,0,0,0,2.8,1.485,7.161,7.161,0,0,0,4.063-1.349c.213-.163.43-.31.467-.6A.428.428,0,0,0,134.53,56.4Z" transform="translate(-60.16 -25.989)" fill="#fff"/>
      <path id="패스_5" data-name="패스 5" d="M11.524,38.069a2.672,2.672,0,0,1,2.126.576c.585.482.757.722,1.316,1.233a1.565,1.565,0,0,0,2.045.241,1.2,1.2,0,0,0,.265-1.167,1.73,1.73,0,0,0-.322-.667,3.453,3.453,0,0,0-1.348-.95,7.971,7.971,0,0,0-6.279-.048A6.443,6.443,0,0,0,6.757,39.12a4.18,4.18,0,0,0-.9,2.9,6.1,6.1,0,0,0,.993,2.594,12.322,12.322,0,0,0,2.414,2.351c1.236.842,2.576,1.551,3.274,2.935,1.137,2.253.607,6.04-2.135,6.856a4.8,4.8,0,0,1-4.217-.622c-.47-.43-.8-.987-1.259-1.426a3.461,3.461,0,0,0-1.715-.88,1.682,1.682,0,0,0-1.531.337,1.355,1.355,0,0,0-.307,1.215A2.421,2.421,0,0,0,2.009,56.5a5.823,5.823,0,0,0,2.821,1.555,13.421,13.421,0,0,0,8.275-.714,6.528,6.528,0,0,0,3.752-7.249,7.4,7.4,0,0,0-2.809-4.071c-.019-.015-.039-.032-.063-.048a41.8,41.8,0,0,1-3.465-3.1A3.4,3.4,0,0,1,9.51,40,2.591,2.591,0,0,1,11.524,38.069Z" transform="translate(-1.345 -25.762)" fill="#fff"/>
    </g>
  </g>
</svg>
