<svg xmlns="http://www.w3.org/2000/svg" width="57.83" height="23.106" viewBox="0 0 57.83 23.106">
  <g id="그룹_28" data-name="그룹 28" transform="translate(-1.345 -14.002)">
    <path id="패스_1" data-name="패스 1" d="M162.511,74.2a1.512,1.512,0,1,1,1.512,1.584A1.519,1.519,0,0,1,162.511,74.2Zm2.716,0a1.213,1.213,0,1,0-1.2,1.314A1.234,1.234,0,0,0,165.227,74.2Zm-1.786-.85h.6c.328,0,.625.138.625.53a.466.466,0,0,1-.305.443l.378.682h-.35l-.3-.581h-.342v.581h-.312Zm.53.828c.225,0,.363-.088.363-.276,0-.165-.086-.282-.34-.282h-.24v.559Z" transform="translate(-106.358 -38.678)"/>
    <g id="그룹_9" data-name="그룹 9" transform="translate(1.345 14.002)">
      <path id="패스_2" data-name="패스 2" d="M48.828,14.016a3.262,3.262,0,0,0-2.636,2.352c-.023.163-2.028,14.023-2.421,16.725-.006.04-.012.079-.017.114a8.02,8.02,0,0,0,.111,2.247,2.067,2.067,0,0,0,1.179,1.459,2.958,2.958,0,0,0,.753.148,3.8,3.8,0,0,0,.9-.021,6.027,6.027,0,0,0,1.588-.507,3.988,3.988,0,0,0,.49-.271,1.192,1.192,0,0,0,.384-.341.338.338,0,0,0-.016-.428.418.418,0,0,0-.4-.048,4.584,4.584,0,0,1-.62.136,1.727,1.727,0,0,1-.767-.049c-.924-.316-.836-1.681-.727-2.435.1-.721.352-2.416.389-2.674l2.31-15.963A.4.4,0,0,0,48.828,14.016Z" transform="translate(-29.312 -14.002)"/>
      <path id="패스_3" data-name="패스 3" d="M70.759,37.4C66.911,39.215,64.7,43.834,65.8,47.675c1.1,3.8,5.037,5.406,8.812,3.622a9.151,9.151,0,0,0,4.992-10.146C78.573,37.276,74.607,35.579,70.759,37.4Zm5.7,7.415c-.6,3.338-2.571,5.942-4.5,6.206a2.277,2.277,0,0,1-.565.005c-2.056-.242-3.349-3.41-2.7-7.084.595-3.343,2.579-5.979,4.509-6.244a2.191,2.191,0,0,1,.566-.006,3.011,3.011,0,0,1,2.307,2.291A9.7,9.7,0,0,1,76.459,44.813Z" transform="translate(-43.695 -28.959)"/>
      <path id="패스_4" data-name="패스 4" d="M128.715,50.742a.289.289,0,0,0-.155-.1.336.336,0,0,0-.25.047c-.1.05-.193.1-.292.139a2.193,2.193,0,0,1-.378.123l-.023,0c-.8.132-1.159-.163-1.324-.523a1.99,1.99,0,0,1-.13-.861c.013-.165.031-.323.054-.47l1.735-11.737a.226.226,0,0,0-.257-.257l-.032.005q-.175.028-.365.066a3.691,3.691,0,0,0-1.839.843,4.821,4.821,0,0,0-1.1,2.781c-.149.959-.531,3.676-.833,5.777-.207,1.449-.521,3.266-1.9,4.075a4.184,4.184,0,0,1-2.938.318c-1.069-.413-1.272-1.644-1.244-2.606,0-.125.01-.253.02-.379.079-.941.218-1.864.347-2.712l1.175-7.878a.224.224,0,0,0-.259-.255,4,4,0,0,0-2.146.882,3.269,3.269,0,0,0-.843,1.571c-.25,1.714-.888,6.253-.906,6.412a14.173,14.173,0,0,0-.021,3.755,2.987,2.987,0,0,0,1.669,2.106,7.164,7.164,0,0,0,3.665.28,9.438,9.438,0,0,0,1.575-.4,6.166,6.166,0,0,0,.761-.332c.2-.105.455-.345.686-.364a.522.522,0,0,1,.426.248,2.24,2.24,0,0,0,1.979,1.049,5.062,5.062,0,0,0,2.872-.953c.15-.115.3-.219.33-.422A.3.3,0,0,0,128.715,50.742Z" transform="translate(-76.146 -29.247)"/>
      <path id="패스_5" data-name="패스 5" d="M8.54,37.658a1.889,1.889,0,0,1,1.5.407c.413.34.535.51.93.871a1.106,1.106,0,0,0,1.445.17.846.846,0,0,0,.187-.825,1.223,1.223,0,0,0-.228-.471,2.441,2.441,0,0,0-.953-.671A5.634,5.634,0,0,0,6.987,37.1,4.554,4.554,0,0,0,5.17,38.4a2.954,2.954,0,0,0-.633,2.049,4.312,4.312,0,0,0,.7,1.834,8.71,8.71,0,0,0,1.706,1.662,6.073,6.073,0,0,1,2.315,2.074c.8,1.592.429,4.27-1.509,4.846a3.391,3.391,0,0,1-2.981-.44c-.332-.3-.566-.7-.89-1.008A2.447,2.447,0,0,0,2.667,48.8a1.189,1.189,0,0,0-1.082.238.958.958,0,0,0-.217.859,1.711,1.711,0,0,0,.447.8,4.116,4.116,0,0,0,1.994,1.1,9.487,9.487,0,0,0,5.85-.505,4.614,4.614,0,0,0,2.652-5.124,5.23,5.23,0,0,0-1.985-2.877c-.014-.011-.028-.022-.044-.034a29.543,29.543,0,0,1-2.449-2.189,2.4,2.4,0,0,1-.714-2.039A1.831,1.831,0,0,1,8.54,37.658Z" transform="translate(-1.345 -28.959)"/>
    </g>
  </g>
</svg>
